<?xml version="1.0" encoding="utf-8"?>
<!-- Generator: Adobe Illustrator 25.3.1, SVG Export Plug-In . SVG Version: 6.00 Build 0)  -->
<svg version="1.1" id="Layer_1" xmlns="http://www.w3.org/2000/svg" xmlns:xlink="http://www.w3.org/1999/xlink" x="0px" y="0px"
	 viewBox="0 0 31.2 22.7" style="enable-background:new 0 0 31.2 22.7;" xml:space="preserve">
<style type="text/css">
	.st0{fill:#B2D0EE;}
	.st1{fill:#253A6B;}
	.st2{fill:#F3987F;}
	.st3{fill:#FFFFFF;}
	.st4{fill:#D1E8EF;}
</style>
<g>
	<path class="st0" d="M7.7,22.3L7.7,22.3c1,0,1.9-0.8,1.9-1.9v-8.2H5.8v8.2C5.8,21.5,6.7,22.3,7.7,22.3z"/>
	<path class="st1" d="M7.7,22.6c-1.2,0-2.2-1-2.2-2.2v-8.2c0-0.2,0.1-0.3,0.3-0.3h3.8c0.2,0,0.3,0.1,0.3,0.3v8.2
		C9.9,21.6,8.9,22.6,7.7,22.6z M6.1,12.5v7.9c0,0.9,0.7,1.6,1.6,1.6c0.9,0,1.6-0.7,1.6-1.6v-7.9H6.1z"/>
</g>
<g>
	<circle class="st2" cx="23.4" cy="9.2" r="2.1"/>
	<path class="st1" d="M23.4,11.5c-1.3,0-2.4-1.1-2.4-2.4c0-1.3,1.1-2.4,2.4-2.4c1.3,0,2.4,1.1,2.4,2.4
		C25.7,10.5,24.7,11.5,23.4,11.5z M23.4,7.4c-1,0-1.8,0.8-1.8,1.8s0.8,1.8,1.8,1.8s1.8-0.8,1.8-1.8S24.4,7.4,23.4,7.4z"/>
</g>
<g>
	<path class="st0" d="M9.6,12.3H5.5c-1.7,0-3.1-1.4-3.1-3.1v0c0-1.7,1.4-3.1,3.1-3.1h4.1V12.3z"/>
	<path class="st1" d="M9.6,12.5H5.1c-1.6,0-2.9-1.3-2.9-2.9V8.7c0-1.6,1.3-2.9,2.9-2.9h4.5c0.2,0,0.3,0.1,0.3,0.3v6.1
		C9.9,12.4,9.8,12.5,9.6,12.5z M5.1,6.4c-1.3,0-2.3,1-2.3,2.3v0.9c0,1.3,1,2.3,2.3,2.3h4.2V6.4H5.1z"/>
</g>
<g>
	<path class="st3" d="M11.4,5.7L9.6,6.1v6.1l1.8,0.4c3.6,0.8,6.1,2.3,9.1,4.4l0,0V1.3l0,0C17.4,3.4,15,4.9,11.4,5.7z"/>
	<path class="st1" d="M20.5,17.4c-0.1,0-0.1,0-0.2-0.1c-3-2-5.4-3.5-9-4.4l-1.8-0.4c-0.1,0-0.2-0.1-0.2-0.3V6.1
		c0-0.1,0.1-0.3,0.2-0.3l1.8-0.4l0,0c3.6-0.8,6-2.3,9-4.4C20.5,1,20.6,1,20.7,1c0.1,0.1,0.2,0.2,0.2,0.3v15.8c0,0.1-0.1,0.2-0.2,0.3
		C20.6,17.4,20.6,17.4,20.5,17.4z M9.9,12l1.6,0.4c3.5,0.8,5.9,2.2,8.8,4.2V1.9C17.4,3.8,15,5.2,11.4,6L9.9,6.4V12z"/>
</g>
<g>
	<path class="st0" d="M22,18L22,18c-0.8,0-1.4-0.6-1.4-1.4V1.8c0-0.8,0.6-1.4,1.4-1.4h0c0.8,0,1.4,0.6,1.4,1.4v14.8
		C23.4,17.4,22.7,18,22,18z"/>
	<path class="st1" d="M22,18.3c-0.9,0-1.7-0.8-1.7-1.7V1.8c0-0.9,0.8-1.7,1.7-1.7c0.9,0,1.7,0.8,1.7,1.7v14.8
		C23.7,17.5,22.9,18.3,22,18.3z M22,0.7c-0.6,0-1.1,0.5-1.1,1.1v14.8c0,0.6,0.5,1.1,1.1,1.1c0.6,0,1.1-0.5,1.1-1.1V1.8
		C23.1,1.2,22.6,0.7,22,0.7z"/>
</g>
<g>
	<rect x="9.6" y="14.5" class="st3" width="1.6" height="2.2"/>
	<path class="st1" d="M11.2,17H9.6c-0.2,0-0.3-0.1-0.3-0.3v-2.2c0-0.2,0.1-0.3,0.3-0.3h1.6c0.2,0,0.3,0.1,0.3,0.3v2.2
		C11.5,16.9,11.4,17,11.2,17z M9.9,16.4h1v-1.6h-1V16.4z"/>
</g>
<g>
	<line class="st2" x1="27.1" y1="9.2" x2="28.7" y2="9.2"/>
	<path class="st1" d="M28.7,9.5h-1.6c-0.2,0-0.3-0.1-0.3-0.3c0-0.2,0.1-0.3,0.3-0.3h1.6C28.9,8.9,29,9,29,9.2
		C29,9.4,28.9,9.5,28.7,9.5z"/>
</g>
<g>
	<line class="st2" x1="26.7" y1="7.3" x2="28.1" y2="6.5"/>
	<path class="st1" d="M26.7,7.6c-0.1,0-0.2-0.1-0.3-0.1c-0.1-0.1,0-0.3,0.1-0.4l1.4-0.8c0.1-0.1,0.3,0,0.4,0.1
		c0.1,0.1,0,0.3-0.1,0.4l-1.4,0.8C26.8,7.6,26.7,7.6,26.7,7.6z"/>
</g>
<g>
	<line class="st2" x1="25.4" y1="5.9" x2="26.2" y2="4.5"/>
	<path class="st1" d="M25.4,6.2c0,0-0.1,0-0.1,0c-0.1-0.1-0.2-0.3-0.1-0.4l0.8-1.4c0.1-0.1,0.3-0.2,0.4-0.1c0.1,0.1,0.2,0.3,0.1,0.4
		L25.6,6C25.6,6.1,25.5,6.2,25.4,6.2z"/>
</g>
<g>
	<line class="st2" x1="26.7" y1="11.1" x2="28.1" y2="11.9"/>
	<path class="st1" d="M28.1,12.2c0,0-0.1,0-0.1,0l-1.4-0.8c-0.1-0.1-0.2-0.3-0.1-0.4c0.1-0.1,0.3-0.2,0.4-0.1l1.4,0.8
		c0.1,0.1,0.2,0.3,0.1,0.4C28.3,12.1,28.2,12.2,28.1,12.2z"/>
</g>
<g>
	<line class="st2" x1="25.4" y1="12.5" x2="26.2" y2="13.9"/>
	<path class="st1" d="M26.2,14.2c-0.1,0-0.2-0.1-0.3-0.1l-0.8-1.4c-0.1-0.1,0-0.3,0.1-0.4c0.1-0.1,0.3,0,0.4,0.1l0.8,1.4
		c0.1,0.1,0,0.3-0.1,0.4C26.3,14.2,26.2,14.2,26.2,14.2z"/>
</g>
<path class="st4" d="M9.6,11.4v0.9l1.8,0.4c3.6,0.8,6.1,2.3,9.1,4.4v-2.3c-3.1-1.5-5.5-2.6-9.1-3.2L9.6,11.4z"/>
</svg>
